<?xml version="1.0" standalone="no"?>
<!DOCTYPE svg PUBLIC "-//W3C//DTD SVG 20010904//EN"
 "http://www.w3.org/TR/2001/REC-SVG-20010904/DTD/svg10.dtd">
<svg version="1.0" xmlns="http://www.w3.org/2000/svg"
 width="260.000000pt" height="260.000000pt" viewBox="0 0 260.000000 260.000000"
 preserveAspectRatio="xMidYMid meet">
<metadata>
Created by potrace 1.11, written by Peter Selinger 2001-2013
</metadata>
<g transform="translate(0.000000,260.000000) scale(0.100000,-0.100000)"
fill="#000000" stroke="none">
<path d="M752 1743 c-50 -117 -164 -381 -177 -409 -8 -17 -44 -100 -81 -185
-63 -148 -75 -175 -123 -281 -12 -27 -26 -59 -31 -73 l-10 -26 63 3 c51 2 64
7 70 23 5 11 30 70 56 130 l47 110 259 0 258 0 49 -110 c26 -60 48 -114 48
-121 0 -24 29 -35 84 -32 l56 3 -161 370 c-89 204 -171 393 -184 420 -12 28
-39 89 -60 138 l-37 87 -53 0 -52 0 -21 -47z m153 -273 c37 -91 83 -201 101
-245 18 -44 31 -82 29 -85 -7 -11 -420 -5 -420 6 0 27 209 514 216 502 3 -7
37 -87 74 -178z"/>
<path d="M1451 1280 l0 -510 53 0 53 0 -1 250 c-1 138 1 258 4 266 6 16 36
-14 364 -359 l150 -157 74 0 c40 0 72 4 70 9 -1 5 -120 129 -263 276 -143 146
-259 272 -257 278 2 7 7 14 12 17 7 4 100 88 181 161 84 78 217 197 259 233
50 42 47 46 -32 46 l-73 0 -56 -53 c-30 -28 -94 -87 -141 -130 -87 -79 -104
-95 -216 -201 -35 -32 -66 -56 -69 -52 -3 3 -6 103 -6 221 l-1 215 -52 0 -53
0 0 -510z"/>
</g>
</svg>
