<?xml version="1.0" encoding="UTF-8" standalone="no"?>
<svg width="412px" height="412px" viewBox="0 0 412 412" version="1.1" xmlns="http://www.w3.org/2000/svg" xmlns:xlink="http://www.w3.org/1999/xlink">
    <!-- Generator: Sketch 3.7.2 (28276) - http://www.bohemiancoding.com/sketch -->
    <title>Icon</title>
    <desc>Created with Sketch.</desc>
    <defs>
        <circle id="path-1" cx="205" cy="205" r="205"></circle>
    </defs>
    <g id="Page-1" stroke="none" stroke-width="1" fill="none" fill-rule="evenodd">
        <g id="Group" transform="translate(-266.000000, -67.000000)">
            <g id="Icon" transform="translate(472.000000, 273.000000) scale(1, -1) translate(-472.000000, -273.000000) translate(267.000000, 68.000000)">
                <mask id="mask-2" fill="white">
                    <use xlink:href="#path-1"></use>
                </mask>
                <use id="Mask" stroke="#FF5454" xlink:href="#path-1"></use>
                <polygon id="Triangle-1" stroke="#FF5454" mask="url(#mask-2)" points="174 27 204 94 144 94"></polygon>
                <polygon id="Triangle-1-Copy" stroke="#FF5454" mask="url(#mask-2)" points="204 94 234 161 174 161"></polygon>
                <polygon id="Triangle-1-Copy-2" stroke="#FF5454" mask="url(#mask-2)" points="234 27 264 94 204 94"></polygon>
                <polygon id="Triangle-1-Copy-3" stroke="#FF5454" fill="#FF5454" mask="url(#mask-2)" points="264 94 294 161 234 161"></polygon>
                <polygon id="Triangle-1-Copy-4" stroke="#FF5454" mask="url(#mask-2)" points="294 27 324 94 264 94"></polygon>
                <polygon id="Triangle-1-Copy-44" stroke="#FF5454" mask="url(#mask-2)" points="24 94 54 161 -6 161"></polygon>
                <polygon id="Triangle-1-Copy-43" stroke="#FF5454" mask="url(#mask-2)" points="54 161 84 228 24 228"></polygon>
                <polygon id="Triangle-1-Copy-42" stroke="#FF5454" mask="url(#mask-2)" points="84 94 114 161 54 161"></polygon>
                <polygon id="Triangle-1-Copy-41" stroke="#FF5454" mask="url(#mask-2)" points="114 161 144 228 84 228"></polygon>
                <polygon id="Triangle-1-Copy-40" stroke="#FF5454" mask="url(#mask-2)" points="144 94 174 161 114 161"></polygon>
                <polygon id="Triangle-1-Copy-47" stroke="#FF5454" mask="url(#mask-2)" points="84 228 114 295 54 295"></polygon>
                <polygon id="Triangle-1-Copy-46" stroke="#FF5454" mask="url(#mask-2)" points="114 295 144 362 84 362"></polygon>
                <polygon id="Triangle-1-Copy-45" stroke="#FF5454" mask="url(#mask-2)" points="144 228 174 295 114 295"></polygon>
                <polygon id="Triangle-1-Copy-33" stroke="#FF5454" mask="url(#mask-2)" points="204 -40 234 27 174 27"></polygon>
                <polygon id="Triangle-1-Copy-31" stroke="#FF5454" mask="url(#mask-2)" points="264 -40 294 27 234 27"></polygon>
                <polygon id="Triangle-1-Copy-38" stroke="#FF5454" mask="url(#mask-2)" points="54 27 84 94 24 94"></polygon>
                <polygon id="Triangle-1-Copy-37" stroke="#FF5454" mask="url(#mask-2)" points="84 -40 114 27 54 27"></polygon>
                <polygon id="Triangle-1-Copy-36" stroke="#FF5454" mask="url(#mask-2)" points="114 27 144 94 84 94"></polygon>
                <polygon id="Triangle-1-Copy-35" stroke="#FF5454" mask="url(#mask-2)" points="144 -40 174 27 114 27"></polygon>
                <polygon id="Triangle-1-Copy-9" stroke="#FF5454" mask="url(#mask-2)" points="174 161 204 228 144 228"></polygon>
                <polygon id="Triangle-1-Copy-8" stroke="#FF5454" mask="url(#mask-2)" points="204 228 234 295 174 295"></polygon>
                <polygon id="Triangle-1-Copy-7" stroke="#FF5454" mask="url(#mask-2)" points="234 161 264 228 204 228"></polygon>
                <polygon id="Triangle-1-Copy-6" stroke="#FF5454" mask="url(#mask-2)" points="264 228 294 295 234 295"></polygon>
                <polygon id="Triangle-1-Copy-5" stroke="#FF5454" mask="url(#mask-2)" points="294 161 324 228 264 228"></polygon>
                <polygon id="Triangle-1-Copy-14" stroke="#FF5454" mask="url(#mask-2)" points="324 94 354 161 294 161"></polygon>
                <polygon id="Triangle-1-Copy-13" stroke="#FF5454" mask="url(#mask-2)" points="354 161 384 228 324 228"></polygon>
                <polygon id="Triangle-1-Copy-12" stroke="#FF5454" mask="url(#mask-2)" points="384 94 414 161 354 161"></polygon>
                <polygon id="Triangle-1-Copy-11" stroke="#FF5454" mask="url(#mask-2)" points="414 161 444 228 384 228"></polygon>
                <polygon id="Triangle-1-Copy-19" stroke="#FF5454" mask="url(#mask-2)" points="324 -40 354 27 294 27"></polygon>
                <polygon id="Triangle-1-Copy-18" stroke="#FF5454" mask="url(#mask-2)" points="354 27 384 94 324 94"></polygon>
                <polygon id="Triangle-1-Copy-24" stroke="#FF5454" mask="url(#mask-2)" points="324 228 354 295 294 295"></polygon>
                <polygon id="Triangle-1-Copy-23" stroke="#FF5454" mask="url(#mask-2)" points="354 295 384 362 324 362"></polygon>
                <polygon id="Triangle-1-Copy-22" stroke="#FF5454" mask="url(#mask-2)" points="384 228 414 295 354 295"></polygon>
                <polygon id="Triangle-1-Copy-29" stroke="#FF5454" mask="url(#mask-2)" points="174 295 204 362 144 362"></polygon>
                <polygon id="Triangle-1-Copy-30" stroke="#FF5454" mask="url(#mask-2)" points="144 362 174 429 114 429"></polygon>
                <polygon id="Triangle-1-Copy-32" stroke="#FF5454" mask="url(#mask-2)" points="84 362 114 429 54 429"></polygon>
                <polygon id="Triangle-1-Copy-34" stroke="#FF5454" mask="url(#mask-2)" points="54 295 84 362 24 362"></polygon>
                <polygon id="Triangle-1-Copy-49" stroke="#FF5454" mask="url(#mask-2)" points="324 362 354 429 294 429"></polygon>
                <polygon id="Triangle-1-Copy-39" stroke="#FF5454" mask="url(#mask-2)" points="24 228 54 295 -6 295"></polygon>
                <polygon id="Triangle-1-Copy-48" stroke="#FF5454" mask="url(#mask-2)" points="-6 161 24 228 -36 228"></polygon>
                <polygon id="Triangle-1-Copy-28" stroke="#FF5454" mask="url(#mask-2)" points="204 362 234 429 174 429"></polygon>
                <polygon id="Triangle-1-Copy-27" stroke="#FF5454" mask="url(#mask-2)" points="234 295 264 362 204 362"></polygon>
                <polygon id="Triangle-1-Copy-26" stroke="#FF5454" mask="url(#mask-2)" points="264 362 294 429 234 429"></polygon>
                <polygon id="Triangle-1-Copy-25" stroke="#FF5454" mask="url(#mask-2)" points="294 295 324 362 264 362"></polygon>
            </g>
        </g>
    </g>
</svg>